<svg xmlns="http://www.w3.org/2000/svg" viewBox="0 0 100 100" fill="none">
  <defs>
    <!-- Silver/Blue Cloud Layer Gradients -->
    <linearGradient id="layerGrad1" x1="0%" y1="0%" x2="100%" y2="100%">
      <stop offset="0%" stop-color="#E2E8F0" />
      <stop offset="100%" stop-color="#94A3B8" />
    </linearGradient>
    <linearGradient id="layerGrad2" x1="0%" y1="0%" x2="100%" y2="100%">
      <stop offset="0%" stop-color="#CBD5E1" />
      <stop offset="100%" stop-color="#64748B" />
    </linearGradient>
    <linearGradient id="layerGrad3" x1="0%" y1="0%" x2="100%" y2="100%">
      <stop offset="0%" stop-color="#94A3B8" />
      <stop offset="100%" stop-color="#475569" />
    </linearGradient>
  </defs>

  <!-- Top Cloud Layer -->
  <path d="M45 28c8.8 0 16 7.2 16 16 0 1.2-.1 2.3-.4 3.4C63.4 46.5 67 50 71 50c5.5 0 10 4.5 10 10s-4.5 10-10 10H45c-8.8 0-16-7.2-16-16s7.2-16 16-16z" fill="url(#layerGrad1)" opacity="0.9" />

  <!-- Middle Offset Cloud Layer -->
  <path d="M52 38c7.2 0 13 5.8 13 13 0 1-.1 1.9-.3 2.8C66.8 52.8 69.5 55 72.5 55c4.7 0 8.5 3.8 8.5 8.5S77.2 72 72.5 72h-36A13.5 13.5 0 0 1 23 58.5C23 51 29 45 36.5 45c1 0 2 .1 3 .3C41.8 41 46.5 38 52 38z" fill="url(#layerGrad2)" opacity="0.8" />

  <!-- Base grounding Cloud Layer -->
  <path d="M42 46c6 0 11 4.5 11 10.5 0 .8-.1 1.6-.2 2.3C54.4 58.2 56.5 60 59 60c3.9 0 7 3.1 7 7s-3.1 7-7 7H30c-6.6 0-12-5.4-12-12s5.4-12 12-12c.8 0 1.6.1 2.4.3C34.2 48.5 37.8 46 42 46z" fill="url(#layerGrad3)" opacity="0.75" />
</svg>
